<?xml version="1.0" standalone="no"?>
<!DOCTYPE svg PUBLIC "-//W3C//DTD SVG 20010904//EN"
 "http://www.w3.org/TR/2001/REC-SVG-20010904/DTD/svg10.dtd">
<svg version="1.0" xmlns="http://www.w3.org/2000/svg"
 width="500.000000pt" height="500.000000pt" viewBox="0 0 500.000000 500.000000"
 preserveAspectRatio="xMidYMid meet">

<g transform="translate(0.000000,500.000000) scale(0.100000,-0.100000)"
fill="#000000" stroke="none">
<path d="M2091 3678 c-25 -22 -25 -23 -5 -155 l7 -42 -139 -3 -139 -3 -157
-195 c-87 -107 -158 -204 -158 -215 0 -11 16 -121 37 -244 42 -256 44 -261
125 -261 46 0 48 -1 48 -28 0 -89 63 -193 142 -233 84 -43 196 -30 270 31 49
41 88 121 88 182 l0 48 284 0 283 0 6 -54 c14 -137 114 -230 247 -230 135 0
236 94 248 232 l4 52 88 0 c134 0 138 10 93 222 l-26 127 26 21 c37 29 37 80
1 109 -15 12 -35 21 -45 21 -11 0 -19 6 -19 13 0 6 -3 22 -6 35 -6 19 -3 22
25 22 40 0 71 31 71 70 0 44 -31 70 -84 70 -45 0 -56 10 -56 51 0 16 7 19 44
19 58 0 96 29 96 74 0 49 -24 64 -104 68 -78 3 -74 -2 -96 112 -8 37 -21 68
-36 82 l-23 24 -559 0 c-558 0 -558 0 -581 -22z m1064 -130 c3 -7 6 -24 7 -38
l3 -25 -279 -3 c-311 -3 -316 -4 -316 -68 0 -23 7 -38 26 -53 26 -20 38 -21
314 -21 l288 0 6 -22 c13 -50 22 -48 -259 -48 -252 0 -266 -1 -285 -20 -27
-27 -26 -71 3 -98 22 -21 32 -22 302 -24 l279 -3 7 -32 6 -32 -254 -3 c-254
-3 -255 -3 -274 -27 -24 -30 -24 -62 0 -92 l19 -24 270 -3 271 -3 15 -67 c8
-37 18 -84 21 -104 l7 -38 -60 0 c-51 0 -69 5 -113 33 -47 29 -60 32 -129 32
-69 0 -82 -3 -129 -32 l-52 -33 -217 0 -217 0 -49 228 c-26 125 -68 316 -92
425 -24 109 -44 200 -44 203 0 2 207 4 460 4 359 0 462 -3 465 -12z m-1025
-220 c0 -7 3 -23 6 -35 6 -23 5 -23 -80 -23 -98 0 -126 -16 -126 -70 0 -56 27
-70 139 -70 86 0 100 -2 105 -17 8 -25 86 -393 86 -404 0 -15 -126 -11 -139 5
-6 8 -35 24 -63 36 -73 32 -160 24 -229 -19 -33 -20 -63 -31 -88 -31 l-38 0
-28 169 -28 170 119 150 119 150 123 1 c91 0 122 -3 122 -12z m-120 -713 c32
-17 60 -61 60 -95 0 -48 -33 -85 -93 -104 -25 -8 -81 17 -101 45 -23 33 -20
91 5 123 36 46 80 56 129 31z m1068 1 c96 -50 59 -199 -49 -199 -106 0 -140
148 -47 200 30 16 63 16 96 -1z"/>
<path d="M1697 2114 c-4 -4 -7 -103 -7 -221 l0 -213 35 0 35 0 0 105 c0 98 1
105 20 105 19 0 20 -7 20 -115 l0 -115 30 0 30 0 0 230 0 230 -30 0 -30 0 0
-85 c0 -78 -2 -85 -20 -85 -17 0 -19 8 -22 83 -3 79 -4 82 -28 85 -14 2 -29 0
-33 -4z"/>
<path d="M2310 2005 l0 -115 35 0 c35 0 35 0 35 45 0 43 1 45 30 45 25 0 30 4
30 25 0 21 -5 25 -30 25 -29 0 -30 2 -30 45 0 45 0 45 -35 45 l-35 0 0 -115z"/>
<path d="M2800 1900 l0 -220 30 0 30 0 0 105 c0 98 1 105 20 105 19 0 20 -7
20 -115 l0 -115 30 0 30 0 0 230 0 230 -30 0 -30 0 0 -85 c0 -78 -2 -85 -20
-85 -18 0 -20 7 -20 85 l0 85 -30 0 -30 0 0 -220z"/>
<path d="M3420 2005 l0 -115 30 0 c29 0 30 2 30 45 0 45 0 45 35 45 30 0 35 3
35 24 0 21 -6 25 -32 28 -31 3 -33 6 -36 46 -3 39 -5 42 -33 42 l-29 0 0 -115z"/>
<path d="M2030 2000 l0 -100 78 1 c42 0 97 4 122 7 39 6 45 10 48 34 l3 27
-58 -7 c-32 -3 -74 -7 -93 -7 -35 0 -35 0 -35 45 l0 45 73 3 c69 3 72 4 72 27
0 25 0 25 -105 25 l-105 0 0 -100z"/>
<path d="M3130 1998 l0 -101 122 6 c66 3 125 10 129 14 5 5 6 18 3 31 -5 16
-12 21 -28 17 -11 -2 -51 -7 -88 -10 l-68 -7 0 51 0 51 70 0 c68 0 70 1 70 25
l0 25 -105 0 -105 0 0 -102z"/>
<path d="M1470 1925 l0 -155 95 0 95 0 0 155 0 155 -30 0 c-29 0 -30 -1 -30
-50 0 -49 -1 -50 -30 -50 -29 0 -30 1 -30 50 l0 50 -35 0 -35 0 0 -155z m130
-55 c0 -49 -1 -50 -30 -50 -29 0 -30 1 -30 50 0 49 1 50 30 50 29 0 30 -1 30
-50z"/>
<path d="M2580 1925 l0 -155 90 0 90 0 0 155 0 155 -30 0 c-29 0 -30 -1 -30
-50 0 -49 -1 -50 -30 -50 -29 0 -30 1 -30 50 0 49 -1 50 -30 50 l-30 0 0 -155z
m120 -55 c0 -49 -1 -50 -30 -50 -29 0 -30 1 -30 50 0 49 1 50 30 50 29 0 30
-1 30 -50z"/>
<path d="M2070 1845 l0 -25 120 0 c100 0 120 -2 120 -15 0 -12 -20 -15 -120
-15 l-120 0 0 -65 0 -65 160 0 160 0 0 25 0 25 -125 0 c-104 0 -125 2 -125 15
0 13 20 15 120 15 l120 0 0 65 0 65 -155 0 -155 0 0 -25z"/>
<path d="M3180 1845 l0 -25 120 0 c100 0 120 -2 120 -15 0 -12 -20 -15 -120
-15 l-120 0 0 -65 0 -65 160 0 160 0 0 25 0 24 -127 3 c-90 2 -128 7 -131 16
-3 9 25 12 117 12 l121 0 0 65 0 65 -150 0 -150 0 0 -25z"/>
</g>
</svg>
